<svg xmlns="http://www.w3.org/2000/svg" xmlns:xlink="http://www.w3.org/1999/xlink" width="500" zoomAndPan="magnify" viewBox="0 0 375 374.999991" height="500" preserveAspectRatio="xMidYMid meet" version="1.0"><defs><g/><clipPath id="1299cb1d76"><path d="M 130.054688 101.714844 L 192.488281 101.714844 L 192.488281 212.003906 L 130.054688 212.003906 Z M 130.054688 101.714844 " clip-rule="nonzero"/></clipPath><clipPath id="3854831f36"><path d="M 164.722656 106.667969 L 244.75 106.667969 L 244.75 207.222656 L 164.722656 207.222656 Z M 164.722656 106.667969 " clip-rule="nonzero"/></clipPath><clipPath id="e0413f2e1b"><path d="M 182 87.003906 L 196 87.003906 L 196 100 L 182 100 Z M 182 87.003906 " clip-rule="nonzero"/></clipPath><clipPath id="7974dd184a"><path d="M 124.226562 275.804688 L 130.226562 275.804688 L 130.226562 281.804688 L 124.226562 281.804688 Z M 124.226562 275.804688 " clip-rule="nonzero"/></clipPath><clipPath id="264d3da400"><path d="M 124.226562 275.804688 L 130 275.804688 L 130 281.804688 L 124.226562 281.804688 Z M 124.226562 275.804688 " clip-rule="nonzero"/></clipPath><clipPath id="5745d3e0bc"><path d="M 245 275.804688 L 251 275.804688 L 251 281.804688 L 245 281.804688 Z M 245 275.804688 " clip-rule="nonzero"/></clipPath></defs><g clip-path="url(#1299cb1d76)"><path fill="#004aad" d="M 130.054688 142.039062 C 130.054688 142.039062 156.003906 152.441406 169.550781 145.191406 C 188.71875 134.9375 177.957031 111.46875 188.042969 101.839844 C 188.042969 101.839844 186.191406 114.285156 190.984375 136.996094 C 201.492188 186.792969 153.585938 212.003906 153.585938 212.003906 C 153.585938 212.003906 168.84375 188.753906 159.757812 168.933594 C 152.742188 153.625 139.785156 155.902344 130.054688 142.039062 " fill-opacity="1" fill-rule="nonzero"/></g><path fill="#004aad" d="M 173.652344 133.246094 C 173.652344 138.425781 169.453125 142.621094 164.273438 142.621094 C 159.09375 142.621094 154.894531 138.425781 154.894531 133.246094 C 154.894531 128.066406 159.09375 123.867188 164.273438 123.867188 C 169.453125 123.867188 173.652344 128.066406 173.652344 133.246094 " fill-opacity="1" fill-rule="nonzero"/><path fill="#004aad" d="M 162.355469 130.320312 L 174.054688 118.207031 L 157.332031 119.277344 L 145.539062 131.179688 L 147.683594 131.070312 L 149.84375 135.8125 C 149.675781 136.003906 149.625 136.285156 149.734375 136.53125 C 149.847656 136.78125 150.09375 136.925781 150.347656 136.925781 L 150.390625 137.015625 L 151.148438 141.597656 L 152.210938 140.347656 L 153.855469 140.363281 L 150.898438 136.78125 L 150.855469 136.695312 C 151.023438 136.503906 151.074219 136.222656 150.964844 135.972656 C 150.851562 135.726562 150.605469 135.582031 150.351562 135.582031 L 148.285156 131.039062 L 162.355469 130.320312 " fill-opacity="1" fill-rule="nonzero"/><g clip-path="url(#3854831f36)"><path fill="#f6921e" d="M 244.65625 144.65625 C 243.878906 142.265625 241.75 140.71875 239.234375 140.71875 L 207.664062 140.71875 L 197.90625 110.691406 C 197.132812 108.300781 195.003906 106.753906 192.488281 106.753906 C 191.519531 106.753906 190.609375 106.988281 189.8125 107.40625 C 189.765625 110.386719 189.867188 114.601562 190.410156 119.960938 L 192.488281 113.558594 L 201.996094 142.820312 C 202.761719 145.175781 204.941406 146.757812 207.417969 146.757812 L 238.183594 146.757812 L 213.292969 164.84375 C 211.289062 166.300781 210.457031 168.859375 211.222656 171.214844 L 220.730469 200.476562 L 195.839844 182.390625 C 194.835938 181.664062 193.664062 181.300781 192.488281 181.300781 C 191.316406 181.300781 190.140625 181.664062 189.140625 182.390625 L 184.136719 186.027344 C 182.269531 188.945312 180.167969 191.785156 177.824219 194.535156 C 173.410156 199.722656 168.804688 203.851562 164.867188 206.941406 C 165.59375 206.769531 166.300781 206.449219 166.949219 205.980469 L 192.488281 187.421875 L 218.03125 205.980469 C 219.046875 206.71875 220.214844 207.089844 221.378906 207.089844 C 222.546875 207.089844 223.710938 206.71875 224.730469 205.980469 C 226.765625 204.503906 227.578125 202 226.800781 199.609375 L 217.042969 169.585938 L 242.585938 151.027344 C 244.621094 149.546875 245.433594 147.046875 244.65625 144.65625 " fill-opacity="1" fill-rule="nonzero"/></g><path fill="#ffffff" d="M 168.183594 143.75 C 168.183594 143.75 174.59375 148.953125 172.175781 159.824219 L 176.589844 161.820312 L 178.480469 156.359375 C 178.480469 156.359375 177.164062 148.53125 170.179688 142.621094 L 168.183594 143.75 " fill-opacity="1" fill-rule="nonzero"/><g clip-path="url(#e0413f2e1b)"><path fill="#f6921e" d="M 188.828125 87.003906 L 190.363281 91.734375 L 195.339844 91.734375 L 191.3125 94.660156 L 192.851562 99.390625 L 188.828125 96.46875 L 184.800781 99.390625 L 186.339844 94.660156 L 182.316406 91.734375 L 187.289062 91.734375 L 188.828125 87.003906 " fill-opacity="1" fill-rule="nonzero"/></g><g fill="#042c62" fill-opacity="1"><g transform="translate(49.435852, 253.890804)"><g><path d="M 16.25 -5.53125 C 17.1875 -5.53125 18.09375 -5.671875 18.96875 -5.953125 C 19.84375 -6.234375 20.488281 -6.503906 20.90625 -6.765625 L 21.53125 -7.203125 L 24.125 -1.984375 C 24.039062 -1.921875 23.921875 -1.832031 23.765625 -1.71875 C 23.617188 -1.613281 23.265625 -1.414062 22.703125 -1.125 C 22.148438 -0.832031 21.5625 -0.578125 20.9375 -0.359375 C 20.3125 -0.140625 19.488281 0.0507812 18.46875 0.21875 C 17.445312 0.394531 16.390625 0.484375 15.296875 0.484375 C 12.804688 0.484375 10.441406 -0.125 8.203125 -1.34375 C 5.972656 -2.570312 4.171875 -4.257812 2.796875 -6.40625 C 1.429688 -8.5625 0.75 -10.890625 0.75 -13.390625 C 0.75 -15.273438 1.148438 -17.082031 1.953125 -18.8125 C 2.753906 -20.550781 3.820312 -22.039062 5.15625 -23.28125 C 6.488281 -24.519531 8.046875 -25.507812 9.828125 -26.25 C 11.609375 -26.988281 13.429688 -27.359375 15.296875 -27.359375 C 17.035156 -27.359375 18.640625 -27.148438 20.109375 -26.734375 C 21.578125 -26.316406 22.613281 -25.90625 23.21875 -25.5 L 24.125 -24.875 L 21.53125 -19.671875 C 21.375 -19.796875 21.144531 -19.953125 20.84375 -20.140625 C 20.539062 -20.328125 19.929688 -20.570312 19.015625 -20.875 C 18.109375 -21.175781 17.1875 -21.328125 16.25 -21.328125 C 14.769531 -21.328125 13.441406 -21.085938 12.265625 -20.609375 C 11.097656 -20.128906 10.171875 -19.5 9.484375 -18.71875 C 8.804688 -17.9375 8.285156 -17.09375 7.921875 -16.1875 C 7.566406 -15.289062 7.390625 -14.378906 7.390625 -13.453125 C 7.390625 -11.410156 8.15625 -9.578125 9.6875 -7.953125 C 11.21875 -6.335938 13.40625 -5.53125 16.25 -5.53125 Z M 16.25 -5.53125 "/></g></g></g><g fill="#042c62" fill-opacity="1"><g transform="translate(73.94953, 253.890804)"><g><path d="M 0.75 -13.453125 C 0.75 -17.335938 2.070312 -20.625 4.71875 -23.3125 C 7.363281 -26.007812 10.554688 -27.359375 14.296875 -27.359375 C 18.046875 -27.359375 21.234375 -26.015625 23.859375 -23.328125 C 26.492188 -20.648438 27.8125 -17.359375 27.8125 -13.453125 C 27.8125 -9.515625 26.519531 -6.207031 23.9375 -3.53125 C 21.351562 -0.851562 18.140625 0.484375 14.296875 0.484375 C 10.367188 0.484375 7.128906 -0.84375 4.578125 -3.5 C 2.023438 -6.15625 0.75 -9.472656 0.75 -13.453125 Z M 7.359375 -13.453125 C 7.359375 -12.035156 7.570312 -10.742188 8 -9.578125 C 8.4375 -8.421875 9.195312 -7.441406 10.28125 -6.640625 C 11.375 -5.835938 12.710938 -5.4375 14.296875 -5.4375 C 16.578125 -5.4375 18.296875 -6.21875 19.453125 -7.78125 C 20.617188 -9.34375 21.203125 -11.234375 21.203125 -13.453125 C 21.203125 -15.640625 20.609375 -17.519531 19.421875 -19.09375 C 18.242188 -20.664062 16.535156 -21.453125 14.296875 -21.453125 C 12.078125 -21.453125 10.363281 -20.664062 9.15625 -19.09375 C 7.957031 -17.519531 7.359375 -15.640625 7.359375 -13.453125 Z M 7.359375 -13.453125 "/></g></g></g><g fill="#042c62" fill-opacity="1"><g transform="translate(102.499985, 253.890804)"><g><path d="M 24.15625 0 L 22.890625 -15.921875 L 22.734375 -15.921875 L 17.21875 -0.15625 L 13.578125 -0.15625 L 8.078125 -15.921875 L 7.90625 -15.921875 L 6.640625 0 L 0.515625 0 L 2.9375 -26.859375 L 9.4375 -26.859375 L 15.40625 -11.359375 L 21.359375 -26.859375 L 27.875 -26.859375 L 30.28125 0 Z M 24.15625 0 "/></g></g></g><g fill="#042c62" fill-opacity="1"><g transform="translate(133.296721, 253.890804)"><g><path d="M 24.15625 0 L 22.890625 -15.921875 L 22.734375 -15.921875 L 17.21875 -0.15625 L 13.578125 -0.15625 L 8.078125 -15.921875 L 7.90625 -15.921875 L 6.640625 0 L 0.515625 0 L 2.9375 -26.859375 L 9.4375 -26.859375 L 15.40625 -11.359375 L 21.359375 -26.859375 L 27.875 -26.859375 L 30.28125 0 Z M 24.15625 0 "/></g></g></g><g fill="#042c62" fill-opacity="1"><g transform="translate(164.093456, 253.890804)"><g><path d="M 8.078125 -26.859375 L 8.078125 0 L 1.953125 0 L 1.953125 -26.859375 Z M 8.078125 -26.859375 "/></g></g></g><g fill="#042c62" fill-opacity="1"><g transform="translate(174.1203, 253.890804)"><g><path d="M 11.859375 -27.359375 C 13.304688 -27.359375 14.722656 -27.144531 16.109375 -26.71875 C 17.503906 -26.289062 18.539062 -25.875 19.21875 -25.46875 L 20.1875 -24.8125 L 17.71875 -19.921875 C 17.519531 -20.054688 17.242188 -20.226562 16.890625 -20.4375 C 16.546875 -20.644531 15.894531 -20.921875 14.9375 -21.265625 C 13.988281 -21.609375 13.101562 -21.78125 12.28125 -21.78125 C 11.257812 -21.78125 10.46875 -21.5625 9.90625 -21.125 C 9.351562 -20.695312 9.078125 -20.113281 9.078125 -19.375 C 9.078125 -19.007812 9.207031 -18.664062 9.46875 -18.34375 C 9.726562 -18.03125 10.171875 -17.691406 10.796875 -17.328125 C 11.429688 -16.972656 11.988281 -16.6875 12.46875 -16.46875 C 12.945312 -16.257812 13.6875 -15.9375 14.6875 -15.5 C 16.425781 -14.757812 17.90625 -13.753906 19.125 -12.484375 C 20.351562 -11.210938 20.96875 -9.773438 20.96875 -8.171875 C 20.96875 -6.628906 20.691406 -5.28125 20.140625 -4.125 C 19.585938 -2.976562 18.828125 -2.078125 17.859375 -1.421875 C 16.890625 -0.773438 15.816406 -0.296875 14.640625 0.015625 C 13.472656 0.328125 12.207031 0.484375 10.84375 0.484375 C 9.664062 0.484375 8.515625 0.363281 7.390625 0.125 C 6.265625 -0.113281 5.320312 -0.410156 4.5625 -0.765625 C 3.800781 -1.117188 3.113281 -1.46875 2.5 -1.8125 C 1.894531 -2.164062 1.453125 -2.460938 1.171875 -2.703125 L 0.75 -3.0625 L 3.8125 -8.203125 C 4.070312 -7.984375 4.425781 -7.707031 4.875 -7.375 C 5.332031 -7.039062 6.140625 -6.585938 7.296875 -6.015625 C 8.460938 -5.453125 9.492188 -5.171875 10.390625 -5.171875 C 12.972656 -5.171875 14.265625 -6.050781 14.265625 -7.8125 C 14.265625 -8.1875 14.171875 -8.53125 13.984375 -8.84375 C 13.796875 -9.15625 13.46875 -9.46875 13 -9.78125 C 12.539062 -10.09375 12.128906 -10.34375 11.765625 -10.53125 C 11.410156 -10.71875 10.828125 -11 10.015625 -11.375 C 9.203125 -11.757812 8.597656 -12.050781 8.203125 -12.25 C 6.578125 -13.050781 5.316406 -14.050781 4.421875 -15.25 C 3.535156 -16.457031 3.09375 -17.753906 3.09375 -19.140625 C 3.09375 -21.554688 3.984375 -23.53125 5.765625 -25.0625 C 7.546875 -26.59375 9.578125 -27.359375 11.859375 -27.359375 Z M 11.859375 -27.359375 "/></g></g></g><g fill="#042c62" fill-opacity="1"><g transform="translate(195.997053, 253.890804)"><g><path d="M 11.859375 -27.359375 C 13.304688 -27.359375 14.722656 -27.144531 16.109375 -26.71875 C 17.503906 -26.289062 18.539062 -25.875 19.21875 -25.46875 L 20.1875 -24.8125 L 17.71875 -19.921875 C 17.519531 -20.054688 17.242188 -20.226562 16.890625 -20.4375 C 16.546875 -20.644531 15.894531 -20.921875 14.9375 -21.265625 C 13.988281 -21.609375 13.101562 -21.78125 12.28125 -21.78125 C 11.257812 -21.78125 10.46875 -21.5625 9.90625 -21.125 C 9.351562 -20.695312 9.078125 -20.113281 9.078125 -19.375 C 9.078125 -19.007812 9.207031 -18.664062 9.46875 -18.34375 C 9.726562 -18.03125 10.171875 -17.691406 10.796875 -17.328125 C 11.429688 -16.972656 11.988281 -16.6875 12.46875 -16.46875 C 12.945312 -16.257812 13.6875 -15.9375 14.6875 -15.5 C 16.425781 -14.757812 17.90625 -13.753906 19.125 -12.484375 C 20.351562 -11.210938 20.96875 -9.773438 20.96875 -8.171875 C 20.96875 -6.628906 20.691406 -5.28125 20.140625 -4.125 C 19.585938 -2.976562 18.828125 -2.078125 17.859375 -1.421875 C 16.890625 -0.773438 15.816406 -0.296875 14.640625 0.015625 C 13.472656 0.328125 12.207031 0.484375 10.84375 0.484375 C 9.664062 0.484375 8.515625 0.363281 7.390625 0.125 C 6.265625 -0.113281 5.320312 -0.410156 4.5625 -0.765625 C 3.800781 -1.117188 3.113281 -1.46875 2.5 -1.8125 C 1.894531 -2.164062 1.453125 -2.460938 1.171875 -2.703125 L 0.75 -3.0625 L 3.8125 -8.203125 C 4.070312 -7.984375 4.425781 -7.707031 4.875 -7.375 C 5.332031 -7.039062 6.140625 -6.585938 7.296875 -6.015625 C 8.460938 -5.453125 9.492188 -5.171875 10.390625 -5.171875 C 12.972656 -5.171875 14.265625 -6.050781 14.265625 -7.8125 C 14.265625 -8.1875 14.171875 -8.53125 13.984375 -8.84375 C 13.796875 -9.15625 13.46875 -9.46875 13 -9.78125 C 12.539062 -10.09375 12.128906 -10.34375 11.765625 -10.53125 C 11.410156 -10.71875 10.828125 -11 10.015625 -11.375 C 9.203125 -11.757812 8.597656 -12.050781 8.203125 -12.25 C 6.578125 -13.050781 5.316406 -14.050781 4.421875 -15.25 C 3.535156 -16.457031 3.09375 -17.753906 3.09375 -19.140625 C 3.09375 -21.554688 3.984375 -23.53125 5.765625 -25.0625 C 7.546875 -26.59375 9.578125 -27.359375 11.859375 -27.359375 Z M 11.859375 -27.359375 "/></g></g></g><g fill="#042c62" fill-opacity="1"><g transform="translate(217.873806, 253.890804)"><g><path d="M 8.078125 -26.859375 L 8.078125 0 L 1.953125 0 L 1.953125 -26.859375 Z M 8.078125 -26.859375 "/></g></g></g><g fill="#042c62" fill-opacity="1"><g transform="translate(227.900649, 253.890804)"><g><path d="M 0.75 -13.453125 C 0.75 -17.335938 2.070312 -20.625 4.71875 -23.3125 C 7.363281 -26.007812 10.554688 -27.359375 14.296875 -27.359375 C 18.046875 -27.359375 21.234375 -26.015625 23.859375 -23.328125 C 26.492188 -20.648438 27.8125 -17.359375 27.8125 -13.453125 C 27.8125 -9.515625 26.519531 -6.207031 23.9375 -3.53125 C 21.351562 -0.851562 18.140625 0.484375 14.296875 0.484375 C 10.367188 0.484375 7.128906 -0.84375 4.578125 -3.5 C 2.023438 -6.15625 0.75 -9.472656 0.75 -13.453125 Z M 7.359375 -13.453125 C 7.359375 -12.035156 7.570312 -10.742188 8 -9.578125 C 8.4375 -8.421875 9.195312 -7.441406 10.28125 -6.640625 C 11.375 -5.835938 12.710938 -5.4375 14.296875 -5.4375 C 16.578125 -5.4375 18.296875 -6.21875 19.453125 -7.78125 C 20.617188 -9.34375 21.203125 -11.234375 21.203125 -13.453125 C 21.203125 -15.640625 20.609375 -17.519531 19.421875 -19.09375 C 18.242188 -20.664062 16.535156 -21.453125 14.296875 -21.453125 C 12.078125 -21.453125 10.363281 -20.664062 9.15625 -19.09375 C 7.957031 -17.519531 7.359375 -15.640625 7.359375 -13.453125 Z M 7.359375 -13.453125 "/></g></g></g><g fill="#042c62" fill-opacity="1"><g transform="translate(256.451104, 253.890804)"><g><path d="M 8.078125 -16.671875 L 8.078125 0 L 1.953125 0 L 1.953125 -26.859375 L 8.078125 -26.859375 L 18.75 -10.1875 L 18.828125 -10.1875 L 18.828125 -26.859375 L 24.9375 -26.859375 L 24.9375 0 L 18.828125 0 L 8.140625 -16.671875 Z M 8.078125 -16.671875 "/></g></g></g><g fill="#042c62" fill-opacity="1"><g transform="translate(283.341262, 253.890804)"><g><path d="M 17.328125 -26.859375 L 17.328125 -21.484375 L 8.078125 -21.484375 L 8.078125 -16.15625 L 16.9375 -16.15625 L 16.9375 -10.78125 L 8.078125 -10.78125 L 8.078125 -5.375 L 17.328125 -5.375 L 17.328125 0 L 1.953125 0 L 1.953125 -26.859375 Z M 17.328125 -26.859375 "/></g></g></g><g fill="#042c62" fill-opacity="1"><g transform="translate(302.222983, 253.890804)"><g><path d="M 1.953125 -26.859375 L 11.5625 -26.859375 C 14.144531 -26.859375 16.25 -26.171875 17.875 -24.796875 C 19.5 -23.421875 20.3125 -21.453125 20.3125 -18.890625 C 20.3125 -16.910156 19.816406 -15.253906 18.828125 -13.921875 C 17.847656 -12.585938 16.507812 -11.648438 14.8125 -11.109375 L 24.0625 0 L 16.28125 0 L 8.078125 -10.609375 L 8.078125 0 L 1.953125 0 Z M 8.078125 -14.953125 L 8.796875 -14.953125 C 9.359375 -14.953125 9.832031 -14.960938 10.21875 -14.984375 C 10.613281 -15.003906 11.0625 -15.078125 11.5625 -15.203125 C 12.0625 -15.335938 12.460938 -15.523438 12.765625 -15.765625 C 13.066406 -16.003906 13.328125 -16.347656 13.546875 -16.796875 C 13.765625 -17.253906 13.875 -17.804688 13.875 -18.453125 C 13.875 -19.109375 13.765625 -19.664062 13.546875 -20.125 C 13.328125 -20.582031 13.066406 -20.929688 12.765625 -21.171875 C 12.460938 -21.410156 12.0625 -21.59375 11.5625 -21.71875 C 11.0625 -21.851562 10.613281 -21.929688 10.21875 -21.953125 C 9.832031 -21.972656 9.359375 -21.984375 8.796875 -21.984375 L 8.078125 -21.984375 Z M 8.078125 -14.953125 "/></g></g></g><g fill="#042c62" fill-opacity="1"><g transform="translate(135.146657, 284.190949)"><g><path d="M 5.71875 -5.8125 C 6.289062 -5.8125 6.710938 -5.914062 6.984375 -6.125 C 7.265625 -6.34375 7.40625 -6.710938 7.40625 -7.234375 C 7.40625 -7.648438 7.273438 -7.976562 7.015625 -8.21875 C 6.765625 -8.46875 6.390625 -8.59375 5.890625 -8.59375 L 3.1875 -8.59375 L 3.1875 -5.8125 Z M 1.0625 -10.375 L 6.296875 -10.375 C 7.367188 -10.375 8.179688 -10.085938 8.734375 -9.515625 C 9.285156 -8.941406 9.5625 -8.253906 9.5625 -7.453125 C 9.5625 -6.242188 9.03125 -5.414062 7.96875 -4.96875 C 8.457031 -4.78125 8.796875 -4.507812 8.984375 -4.15625 C 9.179688 -3.800781 9.28125 -3.160156 9.28125 -2.234375 C 9.28125 -1.316406 9.3125 -0.773438 9.375 -0.609375 C 9.445312 -0.441406 9.566406 -0.332031 9.734375 -0.28125 L 9.734375 0 L 7.34375 0 C 7.1875 -0.46875 7.109375 -1.140625 7.109375 -2.015625 C 7.109375 -2.753906 7.054688 -3.226562 6.953125 -3.4375 C 6.859375 -3.65625 6.695312 -3.8125 6.46875 -3.90625 C 6.238281 -4.007812 5.890625 -4.0625 5.421875 -4.0625 L 3.1875 -4.0625 L 3.1875 0 L 1.0625 0 Z M 1.0625 -10.375 "/></g></g></g><g fill="#042c62" fill-opacity="1"><g transform="translate(146.958949, 284.190949)"><g><path d="M 5.6875 0 L 3.53125 0 L 3.53125 -3.921875 L -0.0625 -10.375 L 2.5 -10.375 L 4.65625 -5.859375 L 6.703125 -10.375 L 9.15625 -10.375 L 5.6875 -3.890625 Z M 5.6875 0 "/></g></g></g><g fill="#042c62" fill-opacity="1"><g transform="translate(157.727059, 284.190949)"><g><path d="M 3.21875 -1.875 L 8.390625 -1.875 L 8.390625 0 L 1.0625 0 L 1.0625 -10.375 L 3.21875 -10.375 Z M 3.21875 -1.875 "/></g></g></g><g fill="#042c62" fill-opacity="1"><g transform="translate(167.902523, 284.190949)"><g><path d="M 8.6875 -8.546875 L 3.1875 -8.546875 L 3.1875 -6.359375 L 8.25 -6.359375 L 8.25 -4.53125 L 3.1875 -4.53125 L 3.1875 -1.828125 L 8.9375 -1.828125 L 8.9375 0 L 1.0625 0 L 1.0625 -10.375 L 8.6875 -10.375 Z M 8.6875 -8.546875 "/></g></g></g><g fill="#042c62" fill-opacity="1"><g transform="translate(179.016338, 284.190949)"><g><path d="M 8.6875 -8.546875 L 3.1875 -8.546875 L 3.1875 -6.359375 L 8.25 -6.359375 L 8.25 -4.53125 L 3.1875 -4.53125 L 3.1875 -1.828125 L 8.9375 -1.828125 L 8.9375 0 L 1.0625 0 L 1.0625 -10.375 L 8.6875 -10.375 Z M 8.6875 -8.546875 "/></g></g></g><g fill="#042c62" fill-opacity="1"><g transform="translate(190.130153, 284.190949)"><g/></g></g><g fill="#042c62" fill-opacity="1"><g transform="translate(195.55741, 284.190949)"><g><path d="M 5.234375 -5.53125 C 5.785156 -5.53125 6.191406 -5.65625 6.453125 -5.90625 C 6.722656 -6.164062 6.859375 -6.566406 6.859375 -7.109375 C 6.859375 -7.648438 6.707031 -8.03125 6.40625 -8.25 C 6.101562 -8.476562 5.660156 -8.59375 5.078125 -8.59375 L 3.21875 -8.59375 L 3.21875 -5.53125 Z M 3.21875 0 L 1.0625 0 L 1.0625 -10.375 L 5.796875 -10.375 C 6.785156 -10.375 7.566406 -10.078125 8.140625 -9.484375 C 8.722656 -8.890625 9.015625 -8.078125 9.015625 -7.046875 C 9.015625 -6.160156 8.726562 -5.382812 8.15625 -4.71875 C 7.59375 -4.0625 6.773438 -3.734375 5.703125 -3.734375 L 3.21875 -3.734375 Z M 3.21875 0 "/></g></g></g><g fill="#042c62" fill-opacity="1"><g transform="translate(206.650064, 284.190949)"><g><path d="M 8.6875 -8.546875 L 3.1875 -8.546875 L 3.1875 -6.359375 L 8.25 -6.359375 L 8.25 -4.53125 L 3.1875 -4.53125 L 3.1875 -1.828125 L 8.9375 -1.828125 L 8.9375 0 L 1.0625 0 L 1.0625 -10.375 L 8.6875 -10.375 Z M 8.6875 -8.546875 "/></g></g></g><g fill="#042c62" fill-opacity="1"><g transform="translate(217.763879, 284.190949)"><g><path d="M 3.765625 -3.9375 L 6.40625 -3.9375 L 5.109375 -8.03125 L 5.09375 -8.03125 Z M 2.46875 0 L 0.171875 0 L 3.875 -10.375 L 6.375 -10.375 L 10.03125 0 L 7.671875 0 L 7.015625 -2.140625 L 3.1875 -2.140625 Z M 2.46875 0 "/></g></g></g><g fill="#042c62" fill-opacity="1"><g transform="translate(229.51973, 284.190949)"><g><path d="M 3.21875 0 L 1.0625 0 L 1.0625 -10.375 L 3.21875 -10.375 L 3.21875 -6.15625 L 7.1875 -10.375 L 10 -10.375 L 5.765625 -6.125 L 10.234375 0 L 7.453125 0 L 4.234375 -4.546875 L 3.21875 -3.515625 Z M 3.21875 0 "/></g></g></g><g clip-path="url(#7974dd184a)"><path fill="#042c62" d="M 126.9375 285.457031 C 126.828125 285.457031 126.714844 285.457031 126.601562 285.449219 C 126.304688 285.433594 126.007812 285.402344 125.71875 285.347656 C 125.425781 285.296875 125.136719 285.222656 124.851562 285.132812 C 124.570312 285.042969 124.292969 284.9375 124.023438 284.808594 C 123.757812 284.683594 123.496094 284.539062 123.246094 284.378906 C 122.996094 284.21875 122.757812 284.046875 122.527344 283.855469 C 122.300781 283.664062 122.085938 283.457031 121.886719 283.238281 C 121.683594 283.019531 121.5 282.789062 121.328125 282.546875 C 121.15625 282.304688 121.003906 282.050781 120.863281 281.785156 C 120.726562 281.523438 120.605469 281.253906 120.503906 280.972656 C 120.398438 280.695312 120.316406 280.410156 120.25 280.121094 C 120.183594 279.832031 120.136719 279.539062 120.109375 279.242188 C 120.082031 278.945312 120.074219 278.648438 120.082031 278.351562 C 120.09375 278.054688 120.125 277.761719 120.175781 277.46875 C 120.222656 277.175781 120.292969 276.886719 120.378906 276.601562 C 120.464844 276.316406 120.570312 276.039062 120.691406 275.769531 C 120.816406 275.5 120.953125 275.238281 121.113281 274.984375 C 121.269531 274.734375 121.441406 274.492188 121.628906 274.261719 C 121.816406 274.03125 122.019531 273.8125 122.234375 273.609375 C 122.453125 273.40625 122.679688 273.21875 122.921875 273.042969 C 123.164062 272.871094 123.414062 272.710938 123.675781 272.570312 C 123.9375 272.429688 124.207031 272.304688 124.484375 272.199219 C 124.761719 272.09375 125.042969 272.007812 125.332031 271.9375 C 125.621094 271.867188 125.914062 271.816406 126.210938 271.785156 C 126.507812 271.753906 126.800781 271.742188 127.097656 271.75 C 127.398438 271.757812 127.691406 271.78125 127.984375 271.828125 C 128.28125 271.875 128.570312 271.9375 128.855469 272.019531 C 129.140625 272.105469 129.417969 272.207031 129.691406 272.324219 C 129.960938 272.445312 130.226562 272.582031 130.480469 272.734375 C 130.734375 272.890625 130.976562 273.058594 131.210938 273.242188 C 131.441406 273.429688 131.660156 273.628906 131.867188 273.84375 C 132.074219 274.054688 132.265625 274.28125 132.441406 274.519531 C 132.621094 274.761719 132.78125 275.007812 132.925781 275.269531 C 133.070312 275.527344 133.195312 275.796875 133.304688 276.074219 C 133.414062 276.347656 133.507812 276.632812 133.582031 276.917969 C 133.652344 277.207031 133.707031 277.5 133.742188 277.792969 C 133.777344 278.089844 133.792969 278.386719 133.789062 278.683594 C 133.785156 278.980469 133.761719 279.277344 133.722656 279.570312 C 133.679688 279.863281 133.617188 280.152344 133.539062 280.441406 C 133.460938 280.726562 133.359375 281.007812 133.246094 281.28125 C 133.128906 281.554688 132.996094 281.820312 132.84375 282.074219 C 132.695312 282.332031 132.527344 282.578125 132.34375 282.8125 C 132.164062 283.046875 131.964844 283.269531 131.753906 283.476562 C 131.542969 283.6875 131.320312 283.878906 131.082031 284.058594 C 130.847656 284.238281 130.597656 284.402344 130.339844 284.550781 C 130.082031 284.699219 129.816406 284.828125 129.542969 284.941406 C 129.265625 285.054688 128.988281 285.148438 128.699219 285.226562 C 128.414062 285.304688 128.121094 285.359375 127.828125 285.398438 C 127.53125 285.4375 127.234375 285.457031 126.9375 285.457031 Z M 126.925781 271.851562 C 126.492188 271.851562 126.058594 271.894531 125.632812 271.976562 C 125.207031 272.0625 124.789062 272.1875 124.386719 272.351562 C 123.984375 272.515625 123.601562 272.71875 123.234375 272.957031 C 122.871094 273.195312 122.535156 273.46875 122.222656 273.773438 C 121.910156 274.078125 121.632812 274.40625 121.386719 274.765625 C 121.136719 275.125 120.929688 275.503906 120.753906 275.902344 C 120.582031 276.304688 120.445312 276.714844 120.351562 277.140625 C 120.257812 277.566406 120.207031 277.996094 120.195312 278.433594 C 120.1875 278.867188 120.21875 279.300781 120.292969 279.730469 C 120.363281 280.160156 120.480469 280.578125 120.632812 280.984375 C 120.789062 281.390625 120.980469 281.78125 121.210938 282.148438 C 121.441406 282.519531 121.703125 282.863281 122 283.183594 C 122.296875 283.503906 122.621094 283.789062 122.972656 284.046875 C 123.324219 284.300781 123.699219 284.523438 124.09375 284.707031 C 124.488281 284.890625 124.898438 285.035156 125.320312 285.136719 C 125.742188 285.242188 126.171875 285.304688 126.605469 285.328125 C 126.714844 285.332031 126.824219 285.335938 126.933594 285.335938 C 127.371094 285.332031 127.800781 285.292969 128.230469 285.207031 C 128.65625 285.121094 129.070312 285 129.476562 284.832031 C 129.878906 284.667969 130.261719 284.46875 130.625 284.226562 C 130.988281 283.988281 131.328125 283.71875 131.640625 283.414062 C 131.949219 283.109375 132.230469 282.777344 132.476562 282.417969 C 132.722656 282.058594 132.933594 281.679688 133.109375 281.28125 C 133.28125 280.882812 133.414062 280.46875 133.507812 280.042969 C 133.601562 279.617188 133.65625 279.1875 133.664062 278.753906 C 133.675781 278.316406 133.644531 277.882812 133.570312 277.457031 C 133.496094 277.027344 133.382812 276.609375 133.226562 276.199219 C 133.074219 275.792969 132.882812 275.40625 132.652344 275.035156 C 132.421875 274.664062 132.160156 274.320312 131.863281 274 C 131.566406 273.683594 131.242188 273.394531 130.890625 273.136719 C 130.535156 272.882812 130.164062 272.664062 129.769531 272.480469 C 129.375 272.296875 128.964844 272.152344 128.542969 272.046875 C 128.121094 271.941406 127.691406 271.878906 127.253906 271.859375 C 127.144531 271.851562 127.039062 271.851562 126.925781 271.851562 Z M 126.925781 271.851562 " fill-opacity="1" fill-rule="nonzero"/><path fill="#042c62" d="M 126.9375 288.898438 C 126.769531 288.898438 126.601562 288.894531 126.433594 288.886719 C 125.988281 288.867188 125.546875 288.816406 125.105469 288.734375 C 124.667969 288.65625 124.234375 288.550781 123.808594 288.414062 C 123.382812 288.277344 122.96875 288.117188 122.5625 287.925781 C 122.15625 287.738281 121.765625 287.523438 121.390625 287.28125 C 121.015625 287.042969 120.65625 286.777344 120.3125 286.492188 C 119.96875 286.203125 119.648438 285.894531 119.34375 285.566406 C 119.042969 285.238281 118.761719 284.890625 118.507812 284.523438 C 118.25 284.160156 118.015625 283.78125 117.808594 283.382812 C 117.601562 282.988281 117.417969 282.582031 117.265625 282.160156 C 117.109375 281.742188 116.984375 281.316406 116.882812 280.878906 C 116.785156 280.445312 116.714844 280.003906 116.671875 279.558594 C 116.632812 279.113281 116.617188 278.667969 116.632812 278.222656 C 116.652344 277.777344 116.695312 277.332031 116.769531 276.890625 C 116.84375 276.449219 116.945312 276.015625 117.074219 275.589844 C 117.207031 275.160156 117.363281 274.746094 117.546875 274.339844 C 117.734375 273.929688 117.941406 273.539062 118.179688 273.160156 C 118.414062 272.777344 118.671875 272.417969 118.957031 272.070312 C 119.238281 271.722656 119.542969 271.398438 119.867188 271.09375 C 120.195312 270.785156 120.539062 270.5 120.898438 270.242188 C 121.261719 269.980469 121.640625 269.742188 122.03125 269.527344 C 122.425781 269.316406 122.832031 269.128906 123.246094 268.972656 C 123.664062 268.8125 124.089844 268.679688 124.523438 268.574219 C 124.960938 268.46875 125.398438 268.394531 125.84375 268.347656 C 126.289062 268.300781 126.734375 268.28125 127.179688 268.292969 C 127.625 268.304688 128.070312 268.34375 128.511719 268.410156 C 128.953125 268.480469 129.386719 268.578125 129.816406 268.703125 C 130.246094 268.828125 130.664062 268.980469 131.074219 269.160156 C 131.484375 269.339844 131.878906 269.542969 132.261719 269.773438 C 132.644531 270.003906 133.007812 270.261719 133.359375 270.539062 C 133.707031 270.816406 134.039062 271.117188 134.347656 271.4375 C 134.660156 271.761719 134.945312 272.101562 135.210938 272.460938 C 135.476562 272.820312 135.71875 273.191406 135.9375 273.582031 C 136.15625 273.972656 136.34375 274.375 136.511719 274.792969 C 136.675781 275.207031 136.8125 275.632812 136.921875 276.066406 C 137.03125 276.496094 137.113281 276.9375 137.164062 277.378906 C 137.21875 277.824219 137.242188 278.269531 137.238281 278.714844 C 137.230469 279.164062 137.199219 279.605469 137.132812 280.050781 C 137.070312 280.492188 136.980469 280.925781 136.859375 281.359375 C 136.738281 281.789062 136.59375 282.210938 136.417969 282.621094 C 136.242188 283.03125 136.042969 283.429688 135.816406 283.816406 C 135.589844 284.199219 135.339844 284.570312 135.066406 284.921875 C 134.792969 285.273438 134.496094 285.609375 134.179688 285.921875 C 133.859375 286.234375 133.523438 286.527344 133.167969 286.796875 C 132.8125 287.070312 132.441406 287.316406 132.050781 287.539062 C 131.664062 287.757812 131.265625 287.953125 130.851562 288.125 C 130.4375 288.292969 130.015625 288.4375 129.582031 288.550781 C 129.152344 288.667969 128.714844 288.753906 128.273438 288.8125 C 127.828125 288.871094 127.382812 288.898438 126.9375 288.898438 Z M 126.925781 268.410156 C 126.261719 268.40625 125.609375 268.464844 124.957031 268.585938 C 124.308594 268.710938 123.675781 268.894531 123.0625 269.140625 C 122.449219 269.386719 121.863281 269.691406 121.308594 270.050781 C 120.753906 270.410156 120.238281 270.820312 119.761719 271.28125 C 119.289062 271.742188 118.863281 272.242188 118.484375 272.785156 C 118.109375 273.332031 117.785156 273.90625 117.519531 274.511719 C 117.257812 275.117188 117.050781 275.742188 116.910156 276.390625 C 116.765625 277.035156 116.6875 277.6875 116.671875 278.351562 C 116.65625 279.011719 116.703125 279.667969 116.816406 280.320312 C 116.925781 280.972656 117.101562 281.605469 117.335938 282.226562 C 117.574219 282.84375 117.867188 283.433594 118.21875 283.992188 C 118.570312 284.554688 118.972656 285.074219 119.421875 285.558594 C 119.875 286.039062 120.371094 286.476562 120.910156 286.859375 C 121.445312 287.246094 122.015625 287.578125 122.617188 287.851562 C 123.21875 288.128906 123.839844 288.34375 124.484375 288.496094 C 125.128906 288.648438 125.78125 288.738281 126.441406 288.765625 C 126.605469 288.773438 126.773438 288.777344 126.9375 288.777344 C 127.597656 288.78125 128.253906 288.722656 128.902344 288.601562 C 129.554688 288.476562 130.183594 288.292969 130.800781 288.046875 C 131.414062 287.800781 132 287.5 132.554688 287.136719 C 133.109375 286.777344 133.625 286.367188 134.097656 285.90625 C 134.574219 285.445312 135 284.945312 135.375 284.402344 C 135.753906 283.859375 136.074219 283.285156 136.339844 282.675781 C 136.605469 282.070312 136.808594 281.445312 136.953125 280.800781 C 137.097656 280.152344 137.175781 279.5 137.191406 278.839844 C 137.207031 278.175781 137.160156 277.519531 137.046875 276.867188 C 136.933594 276.214844 136.761719 275.582031 136.523438 274.964844 C 136.289062 274.34375 135.996094 273.757812 135.644531 273.195312 C 135.292969 272.632812 134.890625 272.113281 134.4375 271.628906 C 133.984375 271.148438 133.492188 270.714844 132.953125 270.328125 C 132.414062 269.941406 131.847656 269.609375 131.246094 269.335938 C 130.644531 269.0625 130.019531 268.847656 129.378906 268.691406 C 128.734375 268.539062 128.082031 268.449219 127.421875 268.421875 C 127.253906 268.414062 127.089844 268.410156 126.925781 268.410156 Z M 126.925781 268.410156 " fill-opacity="1" fill-rule="nonzero"/></g><g clip-path="url(#264d3da400)"><path fill="#042c62" d="M 129.554688 278.59375 C 129.554688 278.941406 129.488281 279.277344 129.355469 279.597656 C 129.222656 279.917969 129.035156 280.203125 128.789062 280.449219 C 128.542969 280.695312 128.257812 280.882812 127.9375 281.019531 C 127.613281 281.152344 127.277344 281.21875 126.929688 281.21875 C 126.582031 281.21875 126.25 281.152344 125.925781 281.019531 C 125.605469 280.882812 125.320312 280.695312 125.074219 280.449219 C 124.828125 280.203125 124.640625 279.917969 124.503906 279.597656 C 124.371094 279.277344 124.304688 278.941406 124.304688 278.59375 C 124.304688 278.246094 124.371094 277.910156 124.503906 277.589844 C 124.640625 277.265625 124.828125 276.984375 125.074219 276.734375 C 125.320312 276.488281 125.605469 276.300781 125.925781 276.167969 C 126.25 276.035156 126.582031 275.96875 126.929688 275.96875 C 127.277344 275.96875 127.613281 276.035156 127.9375 276.167969 C 128.257812 276.300781 128.542969 276.488281 128.789062 276.734375 C 129.035156 276.984375 129.222656 277.265625 129.355469 277.589844 C 129.488281 277.910156 129.554688 278.246094 129.554688 278.59375 Z M 129.554688 278.59375 " fill-opacity="1" fill-rule="nonzero"/></g><g clip-path="url(#5745d3e0bc)"><path fill="#042c62" d="M 247.710938 285.457031 C 247.597656 285.457031 247.484375 285.457031 247.371094 285.449219 C 247.074219 285.433594 246.78125 285.402344 246.488281 285.347656 C 246.195312 285.296875 245.90625 285.222656 245.625 285.132812 C 245.339844 285.042969 245.066406 284.9375 244.796875 284.808594 C 244.527344 284.683594 244.265625 284.539062 244.015625 284.378906 C 243.765625 284.21875 243.527344 284.046875 243.300781 283.855469 C 243.070312 283.664062 242.859375 283.457031 242.65625 283.238281 C 242.457031 283.019531 242.269531 282.789062 242.097656 282.546875 C 241.925781 282.304688 241.773438 282.050781 241.636719 281.785156 C 241.496094 281.523438 241.375 281.253906 241.273438 280.972656 C 241.171875 280.695312 241.085938 280.410156 241.019531 280.121094 C 240.953125 279.832031 240.90625 279.539062 240.878906 279.242188 C 240.851562 278.945312 240.84375 278.648438 240.855469 278.351562 C 240.867188 278.054688 240.894531 277.761719 240.945312 277.46875 C 240.996094 277.175781 241.0625 276.886719 241.148438 276.601562 C 241.234375 276.316406 241.339844 276.039062 241.464844 275.769531 C 241.585938 275.5 241.726562 275.238281 241.882812 274.984375 C 242.039062 274.734375 242.210938 274.492188 242.398438 274.261719 C 242.589844 274.03125 242.789062 273.8125 243.007812 273.609375 C 243.222656 273.40625 243.453125 273.21875 243.691406 273.042969 C 243.933594 272.871094 244.183594 272.710938 244.445312 272.570312 C 244.707031 272.429688 244.976562 272.304688 245.253906 272.199219 C 245.53125 272.09375 245.816406 272.007812 246.105469 271.9375 C 246.394531 271.867188 246.6875 271.816406 246.980469 271.785156 C 247.277344 271.753906 247.574219 271.742188 247.871094 271.75 C 248.167969 271.757812 248.464844 271.78125 248.757812 271.828125 C 249.050781 271.875 249.339844 271.9375 249.625 272.019531 C 249.910156 272.105469 250.1875 272.207031 250.460938 272.324219 C 250.734375 272.445312 250.996094 272.582031 251.25 272.734375 C 251.503906 272.890625 251.75 273.058594 251.980469 273.242188 C 252.214844 273.429688 252.433594 273.628906 252.640625 273.84375 C 252.84375 274.054688 253.035156 274.28125 253.214844 274.519531 C 253.390625 274.761719 253.550781 275.007812 253.695312 275.269531 C 253.839844 275.527344 253.96875 275.796875 254.078125 276.074219 C 254.1875 276.347656 254.277344 276.632812 254.351562 276.917969 C 254.425781 277.207031 254.476562 277.5 254.511719 277.792969 C 254.546875 278.089844 254.5625 278.386719 254.558594 278.683594 C 254.558594 278.980469 254.535156 279.277344 254.492188 279.570312 C 254.449219 279.863281 254.390625 280.152344 254.308594 280.441406 C 254.230469 280.726562 254.132812 281.007812 254.015625 281.28125 C 253.898438 281.554688 253.765625 281.820312 253.617188 282.074219 C 253.464844 282.332031 253.300781 282.578125 253.117188 282.8125 C 252.933594 283.046875 252.738281 283.269531 252.527344 283.476562 C 252.316406 283.6875 252.089844 283.878906 251.855469 284.058594 C 251.617188 284.238281 251.371094 284.402344 251.113281 284.550781 C 250.855469 284.699219 250.589844 284.828125 250.3125 284.941406 C 250.039062 285.054688 249.757812 285.148438 249.46875 285.226562 C 249.183594 285.304688 248.890625 285.359375 248.597656 285.398438 C 248.304688 285.4375 248.007812 285.457031 247.710938 285.457031 Z M 247.699219 271.851562 C 247.261719 271.851562 246.832031 271.894531 246.402344 271.976562 C 245.976562 272.0625 245.5625 272.1875 245.160156 272.351562 C 244.753906 272.515625 244.371094 272.71875 244.007812 272.957031 C 243.644531 273.195312 243.304688 273.46875 242.996094 273.773438 C 242.683594 274.078125 242.402344 274.40625 242.15625 274.765625 C 241.910156 275.125 241.699219 275.503906 241.523438 275.902344 C 241.351562 276.304688 241.21875 276.714844 241.125 277.140625 C 241.03125 277.566406 240.976562 277.996094 240.96875 278.433594 C 240.957031 278.867188 240.988281 279.300781 241.0625 279.730469 C 241.136719 280.160156 241.25 280.578125 241.40625 280.984375 C 241.558594 281.390625 241.75 281.78125 241.980469 282.148438 C 242.210938 282.519531 242.472656 282.863281 242.769531 283.183594 C 243.066406 283.503906 243.390625 283.789062 243.742188 284.046875 C 244.097656 284.300781 244.46875 284.523438 244.863281 284.707031 C 245.257812 284.890625 245.667969 285.035156 246.089844 285.136719 C 246.511719 285.242188 246.941406 285.304688 247.378906 285.328125 C 247.488281 285.332031 247.597656 285.335938 247.707031 285.335938 C 248.140625 285.332031 248.574219 285.292969 249 285.207031 C 249.425781 285.121094 249.84375 285 250.246094 284.832031 C 250.648438 284.667969 251.03125 284.46875 251.398438 284.226562 C 251.761719 283.988281 252.097656 283.71875 252.410156 283.414062 C 252.722656 283.109375 253 282.777344 253.246094 282.417969 C 253.496094 282.058594 253.707031 281.679688 253.878906 281.28125 C 254.050781 280.882812 254.1875 280.46875 254.28125 280.042969 C 254.375 279.617188 254.425781 279.1875 254.4375 278.753906 C 254.445312 278.316406 254.414062 277.882812 254.339844 277.457031 C 254.269531 277.027344 254.152344 276.609375 254 276.199219 C 253.84375 275.792969 253.652344 275.40625 253.421875 275.035156 C 253.191406 274.664062 252.929688 274.320312 252.632812 274 C 252.335938 273.683594 252.011719 273.394531 251.660156 273.136719 C 251.308594 272.882812 250.933594 272.664062 250.539062 272.480469 C 250.144531 272.296875 249.734375 272.152344 249.3125 272.046875 C 248.890625 271.941406 248.460938 271.878906 248.027344 271.859375 C 247.917969 271.851562 247.808594 271.851562 247.699219 271.851562 Z M 247.699219 271.851562 " fill-opacity="1" fill-rule="nonzero"/><path fill="#042c62" d="M 247.707031 288.898438 C 247.542969 288.898438 247.375 288.894531 247.207031 288.886719 C 246.761719 288.867188 246.316406 288.816406 245.878906 288.734375 C 245.4375 288.65625 245.003906 288.550781 244.578125 288.414062 C 244.152344 288.277344 243.738281 288.117188 243.332031 287.925781 C 242.929688 287.738281 242.539062 287.523438 242.160156 287.28125 C 241.785156 287.042969 241.425781 286.777344 241.082031 286.492188 C 240.742188 286.203125 240.417969 285.894531 240.117188 285.566406 C 239.8125 285.238281 239.535156 284.890625 239.277344 284.523438 C 239.019531 284.160156 238.789062 283.78125 238.578125 283.382812 C 238.371094 282.988281 238.191406 282.582031 238.035156 282.160156 C 237.882812 281.742188 237.753906 281.316406 237.65625 280.878906 C 237.554688 280.445312 237.484375 280.003906 237.445312 279.558594 C 237.402344 279.113281 237.390625 278.667969 237.40625 278.222656 C 237.421875 277.777344 237.464844 277.332031 237.539062 276.890625 C 237.613281 276.449219 237.714844 276.015625 237.847656 275.589844 C 237.976562 275.160156 238.132812 274.746094 238.320312 274.339844 C 238.503906 273.929688 238.714844 273.539062 238.949219 273.160156 C 239.183594 272.777344 239.445312 272.417969 239.726562 272.070312 C 240.011719 271.722656 240.3125 271.398438 240.640625 271.09375 C 240.964844 270.785156 241.308594 270.5 241.671875 270.242188 C 242.03125 269.980469 242.410156 269.742188 242.804688 269.527344 C 243.195312 269.316406 243.601562 269.128906 244.019531 268.972656 C 244.4375 268.8125 244.863281 268.679688 245.296875 268.574219 C 245.730469 268.46875 246.167969 268.394531 246.613281 268.347656 C 247.058594 268.300781 247.503906 268.28125 247.949219 268.292969 C 248.398438 268.304688 248.839844 268.34375 249.28125 268.410156 C 249.722656 268.480469 250.160156 268.578125 250.589844 268.703125 C 251.015625 268.828125 251.4375 268.980469 251.84375 269.160156 C 252.253906 269.339844 252.648438 269.542969 253.03125 269.773438 C 253.414062 270.003906 253.78125 270.261719 254.128906 270.539062 C 254.480469 270.816406 254.808594 271.117188 255.121094 271.4375 C 255.429688 271.761719 255.71875 272.101562 255.984375 272.460938 C 256.25 272.820312 256.492188 273.191406 256.707031 273.582031 C 256.925781 273.972656 257.117188 274.375 257.28125 274.792969 C 257.445312 275.207031 257.582031 275.632812 257.691406 276.066406 C 257.804688 276.496094 257.882812 276.9375 257.9375 277.378906 C 257.988281 277.824219 258.011719 278.269531 258.007812 278.714844 C 258.003906 279.164062 257.96875 279.605469 257.90625 280.050781 C 257.84375 280.492188 257.75 280.925781 257.632812 281.359375 C 257.511719 281.789062 257.363281 282.210938 257.1875 282.621094 C 257.015625 283.03125 256.8125 283.429688 256.589844 283.816406 C 256.363281 284.199219 256.109375 284.570312 255.835938 284.921875 C 255.5625 285.273438 255.265625 285.609375 254.949219 285.921875 C 254.632812 286.234375 254.292969 286.527344 253.9375 286.796875 C 253.582031 287.070312 253.210938 287.316406 252.824219 287.539062 C 252.4375 287.757812 252.035156 287.953125 251.621094 288.125 C 251.210938 288.292969 250.785156 288.4375 250.355469 288.550781 C 249.921875 288.667969 249.484375 288.753906 249.042969 288.8125 C 248.601562 288.871094 248.15625 288.898438 247.707031 288.898438 Z M 247.695312 268.410156 C 247.035156 268.40625 246.378906 268.464844 245.730469 268.585938 C 245.078125 268.710938 244.445312 268.894531 243.832031 269.140625 C 243.21875 269.386719 242.632812 269.691406 242.078125 270.050781 C 241.523438 270.410156 241.007812 270.820312 240.535156 271.28125 C 240.058594 271.742188 239.632812 272.242188 239.253906 272.785156 C 238.878906 273.332031 238.558594 273.90625 238.292969 274.511719 C 238.027344 275.117188 237.824219 275.742188 237.679688 276.390625 C 237.535156 277.035156 237.457031 277.6875 237.441406 278.351562 C 237.425781 279.011719 237.472656 279.667969 237.585938 280.320312 C 237.699219 280.972656 237.871094 281.605469 238.109375 282.226562 C 238.34375 282.84375 238.636719 283.433594 238.988281 283.992188 C 239.339844 284.554688 239.742188 285.074219 240.195312 285.558594 C 240.648438 286.039062 241.140625 286.476562 241.679688 286.859375 C 242.214844 287.246094 242.785156 287.578125 243.386719 287.851562 C 243.988281 288.128906 244.613281 288.34375 245.253906 288.496094 C 245.898438 288.648438 246.550781 288.738281 247.210938 288.765625 C 247.378906 288.773438 247.542969 288.777344 247.707031 288.777344 C 248.367188 288.78125 249.023438 288.722656 249.675781 288.601562 C 250.324219 288.476562 250.957031 288.292969 251.570312 288.046875 C 252.183594 287.800781 252.769531 287.5 253.324219 287.136719 C 253.878906 286.777344 254.394531 286.367188 254.871094 285.90625 C 255.34375 285.445312 255.769531 284.945312 256.148438 284.402344 C 256.523438 283.859375 256.847656 283.285156 257.109375 282.675781 C 257.375 282.070312 257.582031 281.445312 257.722656 280.800781 C 257.867188 280.152344 257.945312 279.5 257.960938 278.839844 C 257.976562 278.175781 257.929688 277.519531 257.816406 276.867188 C 257.703125 276.214844 257.53125 275.582031 257.292969 274.964844 C 257.058594 274.34375 256.765625 273.757812 256.414062 273.195312 C 256.0625 272.632812 255.660156 272.113281 255.210938 271.628906 C 254.757812 271.148438 254.261719 270.714844 253.722656 270.328125 C 253.1875 269.941406 252.617188 269.609375 252.015625 269.335938 C 251.414062 269.0625 250.792969 268.847656 250.148438 268.691406 C 249.503906 268.539062 248.851562 268.449219 248.191406 268.421875 C 248.027344 268.414062 247.859375 268.410156 247.695312 268.410156 Z M 247.695312 268.410156 " fill-opacity="1" fill-rule="nonzero"/><path fill="#042c62" d="M 250.328125 278.59375 C 250.328125 278.941406 250.261719 279.277344 250.128906 279.597656 C 249.996094 279.917969 249.804688 280.203125 249.558594 280.449219 C 249.3125 280.695312 249.027344 280.882812 248.707031 281.019531 C 248.386719 281.152344 248.050781 281.21875 247.703125 281.21875 C 247.355469 281.21875 247.019531 281.152344 246.699219 281.019531 C 246.375 280.882812 246.09375 280.695312 245.847656 280.449219 C 245.601562 280.203125 245.410156 279.917969 245.277344 279.597656 C 245.144531 279.277344 245.078125 278.941406 245.078125 278.59375 C 245.078125 278.246094 245.144531 277.910156 245.277344 277.589844 C 245.410156 277.265625 245.601562 276.984375 245.847656 276.734375 C 246.09375 276.488281 246.375 276.300781 246.699219 276.167969 C 247.019531 276.035156 247.355469 275.96875 247.703125 275.96875 C 248.050781 275.96875 248.386719 276.035156 248.707031 276.167969 C 249.027344 276.300781 249.3125 276.488281 249.558594 276.734375 C 249.804688 276.984375 249.996094 277.265625 250.128906 277.589844 C 250.261719 277.910156 250.328125 278.246094 250.328125 278.59375 Z M 250.328125 278.59375 " fill-opacity="1" fill-rule="nonzero"/></g></svg>
